<?xml version="1.0" encoding="utf-8"?>
<!-- Generator: Adobe Illustrator 16.0.0, SVG Export Plug-In . SVG Version: 6.00 Build 0)  -->
<svg version="1.2" baseProfile="tiny" id="Layer_1" xmlns="http://www.w3.org/2000/svg" xmlns:xlink="http://www.w3.org/1999/xlink"
	 x="0px" y="0px" width="18px" height="18px" viewBox="0 0 18 18" xml:space="preserve">
<path fill="#3C5A99" d="M9.093,0.011c4.967,0,8.99,4.024,8.99,8.989c0,4.964-4.023,8.989-8.99,8.989
	c-4.965,0-8.988-4.025-8.988-8.989C0.104,4.035,4.128,0.011,9.093,0.011"/>
<path fill="#FFFFFF" d="M11.354,9.352H9.749v5.875h-2.43V9.352H6.163V7.286h1.156V5.95c0-0.956,0.453-2.452,2.453-2.452l1.799,0.007
	V5.51h-1.307c-0.213,0-0.516,0.107-0.516,0.563v1.216h1.816L11.354,9.352z"/>
</svg>
