<?xml version="1.0" encoding="utf-8"?>
<!-- Generator: Adobe Illustrator 16.0.0, SVG Export Plug-In . SVG Version: 6.00 Build 0)  -->
<!DOCTYPE svg PUBLIC "-//W3C//DTD SVG 1.1//EN" "http://www.w3.org/Graphics/SVG/1.1/DTD/svg11.dtd">
<svg version="1.1" id="Layer_1" xmlns="http://www.w3.org/2000/svg" xmlns:xlink="http://www.w3.org/1999/xlink" x="0px" y="0px"
	 width="105px" height="60px" viewBox="0 0 105 60" enable-background="new 0 0 105 60" xml:space="preserve">
<g>
	<g>
		<path fill="#FFFFFF" d="M19.967,33.364h2.142V35.1h0.047c0.144-0.301,0.333-0.574,0.572-0.82c0.238-0.246,0.503-0.455,0.797-0.632
			c0.293-0.173,0.615-0.312,0.963-0.415c0.348-0.103,0.698-0.154,1.047-0.154c0.348,0,0.665,0.048,0.952,0.143l-0.096,2.308
			c-0.175-0.048-0.348-0.088-0.523-0.118c-0.174-0.032-0.35-0.048-0.524-0.048c-1.047,0-1.847,0.294-2.403,0.879
			c-0.555,0.589-0.833,1.499-0.833,2.737v5.662h-2.142V33.364z"/>
		<path fill="#FFFFFF" d="M29.961,39.787c0,0.491,0.106,0.939,0.32,1.345c0.215,0.404,0.496,0.75,0.845,1.033
			c0.349,0.287,0.752,0.51,1.214,0.668c0.459,0.158,0.935,0.238,1.428,0.238c0.666,0,1.245-0.156,1.736-0.465
			c0.491-0.31,0.943-0.717,1.356-1.226l1.618,1.238c-1.19,1.538-2.854,2.308-4.997,2.308c-0.889,0-1.694-0.151-2.415-0.453
			c-0.721-0.3-1.332-0.716-1.832-1.249c-0.5-0.53-0.884-1.157-1.153-1.88c-0.271-0.721-0.404-1.503-0.404-2.342
			c0-0.842,0.146-1.621,0.441-2.345c0.292-0.72,0.696-1.348,1.212-1.88c0.515-0.53,1.13-0.946,1.844-1.248s1.491-0.452,2.331-0.452
			c1,0,1.844,0.175,2.534,0.522c0.69,0.35,1.256,0.805,1.702,1.369c0.444,0.562,0.764,1.198,0.963,1.902
			c0.197,0.707,0.297,1.425,0.297,2.153v0.762H29.961z M36.718,38.073c-0.016-0.476-0.092-0.91-0.226-1.307
			c-0.135-0.398-0.338-0.741-0.607-1.035c-0.27-0.295-0.606-0.523-1.011-0.69c-0.405-0.167-0.877-0.25-1.416-0.25
			c-0.522,0-1.003,0.099-1.44,0.297c-0.436,0.199-0.805,0.456-1.106,0.773c-0.302,0.317-0.536,0.67-0.701,1.059
			c-0.167,0.389-0.25,0.773-0.25,1.153H36.718z"/>
		<path fill="#FFFFFF" d="M43.188,39.787c0,0.491,0.108,0.939,0.322,1.345c0.215,0.404,0.496,0.75,0.846,1.033
			c0.347,0.287,0.752,0.51,1.213,0.668c0.459,0.158,0.936,0.238,1.428,0.238c0.667,0,1.244-0.156,1.736-0.465
			c0.492-0.31,0.943-0.717,1.356-1.226l1.619,1.238c-1.191,1.538-2.855,2.308-4.997,2.308c-0.889,0-1.693-0.151-2.415-0.453
			c-0.723-0.3-1.332-0.716-1.832-1.249c-0.5-0.53-0.885-1.157-1.154-1.88c-0.27-0.721-0.406-1.503-0.406-2.342
			c0-0.842,0.146-1.621,0.44-2.345c0.293-0.72,0.698-1.348,1.214-1.88c0.515-0.53,1.13-0.946,1.844-1.248s1.49-0.452,2.331-0.452
			c1,0,1.844,0.175,2.534,0.522c0.69,0.35,1.256,0.805,1.701,1.369c0.445,0.562,0.766,1.198,0.963,1.902
			c0.198,0.707,0.298,1.425,0.298,2.153v0.762H43.188z M49.947,38.073c-0.018-0.476-0.092-0.91-0.227-1.307
			c-0.134-0.398-0.336-0.741-0.606-1.035c-0.27-0.295-0.607-0.523-1.012-0.69s-0.877-0.25-1.416-0.25
			c-0.524,0-1.004,0.099-1.44,0.297c-0.437,0.199-0.804,0.456-1.106,0.773c-0.302,0.317-0.534,0.67-0.702,1.059
			c-0.166,0.389-0.25,0.773-0.25,1.153H49.947z"/>
		<path fill="#FFFFFF" d="M54.8,33.364h2.142V35.1h0.048c0.27-0.603,0.737-1.091,1.403-1.463c0.666-0.373,1.437-0.559,2.309-0.559
			c0.538,0,1.059,0.084,1.558,0.249c0.499,0.168,0.937,0.425,1.31,0.775c0.373,0.348,0.67,0.795,0.891,1.343
			c0.224,0.547,0.334,1.193,0.334,1.939v7.256h-2.142v-6.661c0-0.523-0.071-0.972-0.213-1.344c-0.145-0.373-0.333-0.676-0.572-0.904
			c-0.238-0.231-0.511-0.396-0.819-0.501c-0.311-0.103-0.632-0.154-0.964-0.154c-0.445,0-0.857,0.07-1.237,0.214
			c-0.382,0.143-0.715,0.37-0.999,0.678c-0.286,0.31-0.508,0.702-0.667,1.179c-0.158,0.476-0.238,1.039-0.238,1.688v5.806H54.8
			V33.364z"/>
		<path fill="#FFFFFF" d="M10.511,38.03h5.12c-0.371,1.58-1.172,2.865-2.398,3.857c-1.228,0.991-2.616,1.487-4.165,1.487
			c-1.968,0-3.621-0.694-4.961-2.08c-1.341-1.386-2.009-3.116-2.009-5.193c0-1.95,0.671-3.622,2.015-5.013
			c1.344-1.391,2.987-2.085,4.932-2.085c1.124,0,2.14,0.242,3.05,0.726c0.908,0.483,1.762,1.231,2.559,2.244l1.252-1.24
			c-0.659-0.88-1.438-1.602-2.347-2.153c-1.306-0.795-2.779-1.191-4.421-1.191c-1.24,0-2.366,0.201-3.381,0.605
			c-1.015,0.401-1.94,1.018-2.777,1.846c-0.868,0.852-1.525,1.808-1.974,2.869c-0.45,1.062-0.674,2.185-0.674,3.369
			c0,2.526,0.822,4.641,2.469,6.345c1.646,1.704,3.688,2.555,6.129,2.555c2.377,0,4.383-0.791,6.018-2.376
			c1.634-1.584,2.521-3.606,2.661-6.07h-7.096V38.03z"/>
		<path fill="#FFFFFF" d="M72.226,26.236c0,0-0.428-6.872,9.646-9.085c-1.354,4.493-0.93,6.673-9.648,9.216"/>
		<path fill="#FFFFFF" d="M67.104,26.236c0,0,0.43-6.872-9.646-9.085c1.354,4.493,0.93,6.673,9.647,9.216"/>
		<path fill="#FFFFFF" d="M70.033,0.866c0,0-3.369,5.517-3.337,10.868c0.033,5.352,2.974,10.026,2.974,10.026
			c1.685-3.055,3.402-5.302,3.368-9.993C73.006,7.076,70.249,0.491,70.033,0.866z"/>
	</g>
	<g>
		<path fill="#FFFFFF" d="M69.73,9.399L69.73,9.399l1.129,33.1h7.734v2.142H68.576L69.73,9.399z"/>
		<path fill="#FFFFFF" d="M80.046,29.32c0-0.43,0.153-0.799,0.463-1.108c0.309-0.309,0.679-0.464,1.106-0.464
			s0.797,0.155,1.105,0.464c0.31,0.309,0.464,0.679,0.464,1.108c0,0.427-0.154,0.796-0.464,1.105
			c-0.309,0.308-0.678,0.464-1.105,0.464s-0.798-0.156-1.106-0.464C80.199,30.116,80.046,29.747,80.046,29.32z M80.544,33.364h2.143
			v11.276h-2.143V33.364z"/>
		<path fill="#FFFFFF" d="M86.921,35.218h-2.428v-1.854h2.428v-2.522c0-1.507,0.289-2.63,0.868-3.368
			c0.578-0.736,1.574-1.106,2.985-1.106c0.238,0,0.488,0.008,0.749,0.024c0.263,0.017,0.544,0.064,0.846,0.143l-0.239,1.903
			c-0.205-0.079-0.404-0.134-0.595-0.167c-0.189-0.031-0.395-0.047-0.617-0.047c-0.396,0-0.715,0.059-0.953,0.179
			c-0.237,0.118-0.424,0.29-0.558,0.511c-0.136,0.223-0.224,0.488-0.263,0.797c-0.039,0.309-0.059,0.663-0.059,1.059v2.595h2.545
			v1.854h-2.569v9.423h-2.141V35.218z"/>
		<path fill="#FFFFFF" d="M95.629,39.787c0,0.491,0.106,0.939,0.321,1.345c0.213,0.404,0.495,0.75,0.845,1.033
			c0.349,0.287,0.753,0.51,1.213,0.668c0.459,0.158,0.937,0.238,1.428,0.238c0.665,0,1.244-0.156,1.736-0.465
			c0.491-0.31,0.942-0.717,1.354-1.226l1.62,1.238c-1.19,1.538-2.855,2.308-4.997,2.308c-0.888,0-1.693-0.151-2.415-0.453
			c-0.722-0.3-1.332-0.716-1.834-1.249c-0.498-0.53-0.882-1.157-1.152-1.88c-0.27-0.721-0.404-1.503-0.404-2.342
			c0-0.842,0.147-1.621,0.441-2.345c0.293-0.72,0.696-1.348,1.213-1.88c0.514-0.53,1.13-0.946,1.844-1.248
			c0.713-0.302,1.491-0.452,2.332-0.452c0.999,0,1.843,0.175,2.533,0.522c0.689,0.35,1.257,0.805,1.702,1.369
			c0.443,0.562,0.765,1.198,0.963,1.902c0.198,0.707,0.297,1.425,0.297,2.153v0.762H95.629z M102.386,38.073
			c-0.016-0.476-0.092-0.91-0.227-1.307c-0.135-0.398-0.337-0.741-0.605-1.035c-0.271-0.295-0.607-0.523-1.012-0.69
			s-0.878-0.25-1.417-0.25c-0.522,0-1.003,0.099-1.438,0.297c-0.437,0.199-0.806,0.456-1.105,0.773
			c-0.303,0.317-0.536,0.67-0.703,1.059c-0.166,0.389-0.249,0.773-0.249,1.153H102.386z"/>
	</g>
	<g>
		<g>
			<path fill="#FFFFFF" d="M17.78,51.483h0.574v3.702h1.949v0.54H17.78V51.483z"/>
			<path fill="#FFFFFF" d="M22.219,51.483h0.521l1.816,4.242h-0.672l-0.424-1.049h-2.02l-0.419,1.049H20.35L22.219,51.483z
				 M23.25,54.173l-0.791-1.947h-0.012l-0.804,1.947H23.25z"/>
			<path fill="#FFFFFF" d="M25.107,51.483h0.755l2.337,3.487h0.011v-3.487h0.575v4.242h-0.73l-2.36-3.487h-0.012v3.487h-0.576
				V51.483z"/>
			<path fill="#FFFFFF" d="M29.78,51.483h1.481c0.298,0,0.562,0.034,0.787,0.102c0.225,0.067,0.42,0.158,0.587,0.272
				c0.166,0.113,0.304,0.244,0.414,0.393c0.109,0.148,0.196,0.299,0.259,0.455c0.065,0.155,0.11,0.312,0.139,0.468
				c0.029,0.154,0.042,0.299,0.042,0.431c0,0.272-0.05,0.535-0.149,0.788c-0.101,0.256-0.249,0.479-0.444,0.678
				c-0.197,0.198-0.438,0.356-0.728,0.477c-0.29,0.119-0.625,0.18-1.003,0.18H29.78V51.483z M30.356,55.186h0.724
				c0.245,0,0.475-0.032,0.692-0.098c0.218-0.066,0.408-0.166,0.573-0.298c0.164-0.131,0.292-0.297,0.389-0.494
				c0.096-0.197,0.144-0.428,0.144-0.692c0-0.136-0.021-0.293-0.067-0.477c-0.043-0.182-0.126-0.353-0.249-0.517
				c-0.121-0.164-0.29-0.305-0.506-0.417c-0.216-0.113-0.496-0.171-0.839-0.171h-0.862V55.186z"/>
			<path fill="#FFFFFF" d="M34.442,54.838c0.103,0.156,0.236,0.271,0.398,0.345c0.162,0.074,0.329,0.112,0.5,0.112
				c0.096,0,0.193-0.017,0.292-0.047c0.101-0.028,0.192-0.074,0.273-0.135c0.082-0.06,0.149-0.133,0.2-0.221
				c0.053-0.087,0.079-0.19,0.079-0.307c0-0.163-0.052-0.288-0.155-0.374c-0.104-0.085-0.233-0.158-0.387-0.215
				c-0.154-0.059-0.322-0.115-0.503-0.168c-0.184-0.054-0.35-0.128-0.505-0.226c-0.153-0.096-0.282-0.223-0.386-0.386
				c-0.104-0.162-0.156-0.381-0.156-0.656c0-0.122,0.027-0.256,0.082-0.395c0.053-0.141,0.138-0.27,0.254-0.385
				c0.114-0.114,0.264-0.212,0.446-0.291c0.181-0.076,0.4-0.116,0.656-0.116c0.231,0,0.453,0.032,0.665,0.096
				c0.211,0.064,0.397,0.195,0.557,0.39l-0.467,0.427c-0.072-0.113-0.173-0.202-0.306-0.271c-0.131-0.067-0.281-0.103-0.449-0.103
				c-0.162,0-0.292,0.021-0.399,0.062c-0.105,0.043-0.19,0.098-0.255,0.162c-0.064,0.066-0.108,0.139-0.135,0.213
				c-0.026,0.077-0.039,0.146-0.039,0.21c0,0.18,0.053,0.318,0.156,0.414c0.104,0.095,0.232,0.173,0.386,0.232
				c0.155,0.061,0.321,0.114,0.503,0.163c0.183,0.048,0.351,0.114,0.505,0.199c0.153,0.087,0.282,0.203,0.387,0.349
				c0.104,0.146,0.155,0.346,0.155,0.603c0,0.203-0.04,0.386-0.118,0.55c-0.077,0.163-0.182,0.303-0.314,0.414
				c-0.132,0.112-0.288,0.197-0.467,0.259c-0.179,0.059-0.372,0.089-0.575,0.089c-0.272,0-0.529-0.048-0.773-0.145
				c-0.244-0.096-0.438-0.243-0.581-0.443L34.442,54.838z"/>
			<path fill="#FFFFFF" d="M40.601,52.4c-0.12-0.157-0.272-0.276-0.455-0.36c-0.184-0.083-0.374-0.126-0.569-0.126
				c-0.24,0-0.457,0.046-0.65,0.135c-0.194,0.09-0.36,0.213-0.498,0.368c-0.138,0.157-0.245,0.34-0.32,0.549
				c-0.075,0.211-0.114,0.435-0.114,0.674c0,0.226,0.036,0.436,0.108,0.638c0.072,0.199,0.175,0.374,0.312,0.526
				c0.136,0.15,0.302,0.271,0.497,0.358c0.196,0.088,0.418,0.133,0.666,0.133c0.243,0,0.456-0.052,0.641-0.15
				c0.183-0.102,0.34-0.241,0.467-0.42l0.486,0.366c-0.034,0.044-0.089,0.106-0.168,0.188c-0.08,0.083-0.187,0.163-0.318,0.246
				c-0.132,0.081-0.291,0.153-0.476,0.216c-0.186,0.062-0.4,0.093-0.645,0.093c-0.335,0-0.637-0.063-0.907-0.191
				c-0.27-0.129-0.5-0.296-0.688-0.503c-0.19-0.208-0.335-0.443-0.435-0.705c-0.1-0.262-0.15-0.525-0.15-0.794
				c0-0.327,0.054-0.629,0.162-0.907s0.26-0.518,0.453-0.719c0.193-0.202,0.426-0.358,0.698-0.47
				c0.271-0.113,0.571-0.169,0.899-0.169c0.278,0,0.554,0.054,0.822,0.162c0.27,0.107,0.491,0.274,0.663,0.497L40.601,52.4z"/>
			<path fill="#FFFFFF" d="M43.194,51.483h0.523l1.815,4.242h-0.672l-0.425-1.049h-2.02l-0.419,1.049h-0.671L43.194,51.483z
				 M44.226,54.173l-0.791-1.947h-0.011l-0.803,1.947H44.226z"/>
			<path fill="#FFFFFF" d="M46.083,51.483h1.491c0.272,0,0.496,0.036,0.67,0.111c0.178,0.073,0.316,0.167,0.418,0.281
				c0.102,0.112,0.171,0.241,0.212,0.383c0.04,0.143,0.06,0.279,0.06,0.41c0,0.132-0.02,0.269-0.06,0.41
				c-0.041,0.143-0.111,0.271-0.212,0.385c-0.103,0.112-0.241,0.207-0.418,0.28c-0.174,0.074-0.398,0.111-0.67,0.111h-0.916v1.87
				h-0.575V51.483z M46.659,53.354h0.754c0.113,0,0.223-0.01,0.334-0.027c0.109-0.018,0.207-0.052,0.293-0.1
				c0.084-0.048,0.154-0.116,0.205-0.206c0.053-0.091,0.079-0.207,0.079-0.352c0-0.144-0.026-0.26-0.079-0.35
				c-0.051-0.09-0.121-0.158-0.205-0.207c-0.086-0.049-0.185-0.08-0.293-0.099c-0.111-0.019-0.221-0.027-0.334-0.027h-0.754V53.354z
				"/>
			<path fill="#FFFFFF" d="M49.636,51.483h0.575v4.242h-0.575V51.483z"/>
			<path fill="#FFFFFF" d="M51.302,51.483h0.755l2.336,3.487h0.013v-3.487h0.576v4.242H54.25l-2.36-3.487h-0.012v3.487h-0.576
				V51.483z"/>
			<path fill="#FFFFFF" d="M59.685,53.354v2.09c-0.104,0.063-0.222,0.12-0.354,0.168s-0.269,0.09-0.41,0.122
				c-0.142,0.034-0.286,0.06-0.432,0.075c-0.147,0.017-0.283,0.024-0.411,0.024c-0.359,0-0.68-0.06-0.961-0.181
				c-0.282-0.119-0.519-0.282-0.713-0.485c-0.193-0.202-0.342-0.439-0.444-0.709c-0.102-0.271-0.152-0.555-0.152-0.854
				c0-0.315,0.057-0.609,0.164-0.88c0.11-0.271,0.263-0.508,0.455-0.707c0.195-0.199,0.427-0.357,0.698-0.47
				c0.272-0.114,0.57-0.172,0.894-0.172c0.392,0,0.711,0.05,0.959,0.146c0.246,0.099,0.455,0.233,0.623,0.404l-0.408,0.438
				c-0.176-0.168-0.361-0.284-0.556-0.351c-0.196-0.066-0.402-0.1-0.618-0.1c-0.244,0-0.463,0.046-0.659,0.135
				c-0.196,0.09-0.364,0.211-0.503,0.363c-0.141,0.152-0.247,0.33-0.324,0.535c-0.075,0.206-0.114,0.426-0.114,0.656
				c0,0.24,0.043,0.463,0.127,0.67c0.083,0.205,0.2,0.384,0.348,0.535c0.146,0.152,0.322,0.271,0.521,0.356
				c0.198,0.086,0.417,0.13,0.653,0.13c0.203,0,0.395-0.021,0.577-0.059c0.181-0.037,0.337-0.092,0.465-0.165v-1.18h-0.94v-0.538
				H59.685z"/>
			<path fill="#FFFFFF" d="M64.189,54.838c0.104,0.156,0.237,0.271,0.399,0.345c0.161,0.074,0.329,0.112,0.5,0.112
				c0.096,0,0.193-0.017,0.294-0.047c0.098-0.028,0.19-0.074,0.272-0.135c0.083-0.06,0.147-0.133,0.2-0.221
				c0.052-0.087,0.078-0.19,0.078-0.307c0-0.163-0.052-0.288-0.156-0.374c-0.104-0.085-0.233-0.158-0.387-0.215
				c-0.153-0.059-0.322-0.115-0.503-0.168c-0.182-0.054-0.35-0.128-0.503-0.226c-0.153-0.096-0.282-0.223-0.387-0.386
				c-0.104-0.162-0.156-0.381-0.156-0.656c0-0.122,0.027-0.256,0.081-0.395c0.055-0.141,0.139-0.27,0.256-0.385
				c0.114-0.114,0.264-0.212,0.444-0.291c0.184-0.076,0.401-0.116,0.657-0.116c0.231,0,0.454,0.032,0.665,0.096
				c0.211,0.064,0.398,0.195,0.558,0.39l-0.468,0.427c-0.072-0.113-0.173-0.202-0.305-0.271c-0.133-0.067-0.282-0.103-0.45-0.103
				c-0.159,0-0.292,0.021-0.398,0.062c-0.106,0.043-0.191,0.098-0.254,0.162c-0.064,0.066-0.108,0.139-0.136,0.213
				c-0.026,0.077-0.039,0.146-0.039,0.21c0,0.18,0.053,0.318,0.156,0.414c0.104,0.095,0.233,0.173,0.388,0.232
				c0.152,0.061,0.32,0.114,0.502,0.163c0.181,0.048,0.35,0.114,0.503,0.199c0.153,0.087,0.283,0.203,0.387,0.349
				c0.104,0.146,0.156,0.346,0.156,0.603c0,0.203-0.04,0.386-0.117,0.55c-0.077,0.163-0.184,0.303-0.314,0.414
				c-0.132,0.112-0.288,0.197-0.468,0.259c-0.18,0.059-0.372,0.089-0.576,0.089c-0.271,0-0.529-0.048-0.771-0.145
				c-0.245-0.096-0.438-0.243-0.582-0.443L64.189,54.838z"/>
			<path fill="#FFFFFF" d="M67.395,51.483h2.739v0.539h-2.163v1.264h2.013v0.54h-2.013v1.359h2.271v0.54h-2.847V51.483z"/>
			<path fill="#FFFFFF" d="M71.057,51.483h1.491c0.272,0,0.495,0.036,0.672,0.111c0.176,0.073,0.313,0.167,0.417,0.281
				c0.101,0.112,0.171,0.241,0.212,0.383c0.04,0.143,0.06,0.279,0.06,0.41c0,0.137-0.023,0.267-0.072,0.393
				c-0.049,0.127-0.117,0.24-0.207,0.341c-0.09,0.104-0.199,0.189-0.328,0.26c-0.131,0.069-0.275,0.111-0.436,0.128l1.204,1.936
				h-0.719l-1.077-1.87h-0.643v1.87h-0.574V51.483z M71.631,53.354h0.755c0.112,0,0.223-0.01,0.333-0.027
				c0.111-0.018,0.207-0.052,0.294-0.1c0.085-0.048,0.154-0.116,0.207-0.206c0.052-0.091,0.077-0.207,0.077-0.352
				c0-0.144-0.025-0.26-0.077-0.35c-0.053-0.09-0.122-0.158-0.207-0.207c-0.087-0.049-0.183-0.08-0.294-0.099
				c-0.11-0.019-0.221-0.027-0.333-0.027h-0.755V53.354z"/>
			<path fill="#FFFFFF" d="M74.136,51.483h0.665l1.247,3.452h0.012l1.294-3.452h0.629l-1.673,4.242h-0.539L74.136,51.483z"/>
			<path fill="#FFFFFF" d="M78.491,51.483h0.576v4.242h-0.576V51.483z"/>
			<path fill="#FFFFFF" d="M83.111,52.4c-0.12-0.157-0.271-0.276-0.455-0.36c-0.186-0.083-0.374-0.126-0.569-0.126
				c-0.24,0-0.457,0.046-0.65,0.135c-0.194,0.09-0.36,0.213-0.498,0.368c-0.139,0.157-0.244,0.34-0.32,0.549
				c-0.076,0.211-0.113,0.435-0.113,0.674c0,0.226,0.035,0.436,0.108,0.638c0.071,0.199,0.175,0.374,0.312,0.526
				c0.135,0.15,0.302,0.271,0.497,0.358c0.194,0.088,0.417,0.133,0.665,0.133c0.243,0,0.457-0.052,0.641-0.15
				c0.183-0.102,0.339-0.241,0.467-0.42l0.485,0.366c-0.031,0.044-0.088,0.106-0.167,0.188c-0.08,0.083-0.187,0.163-0.318,0.246
				c-0.132,0.081-0.29,0.153-0.477,0.216c-0.186,0.062-0.399,0.093-0.643,0.093c-0.336,0-0.639-0.063-0.909-0.191
				c-0.269-0.129-0.499-0.296-0.689-0.503c-0.188-0.208-0.334-0.443-0.433-0.705c-0.101-0.262-0.15-0.525-0.15-0.794
				c0-0.327,0.053-0.629,0.161-0.907c0.109-0.278,0.259-0.518,0.452-0.719c0.195-0.202,0.428-0.358,0.699-0.47
				c0.271-0.113,0.57-0.169,0.897-0.169c0.28,0,0.555,0.054,0.825,0.162c0.27,0.107,0.489,0.274,0.662,0.497L83.111,52.4z"/>
			<path fill="#FFFFFF" d="M84.375,51.483h2.738v0.539h-2.162v1.264h2.013v0.54h-2.013v1.359h2.27v0.54h-2.846V51.483z"/>
		</g>
		<path fill="#FFFFFF" d="M15.681,48.933c0,0,48.871-1.752,73.636,0C64.783,50.446,20.584,49.457,15.681,48.933z"/>
		<path fill="#FFFFFF" d="M15.681,58.344c0,0,48.871-1.752,73.636,0C64.783,59.858,20.584,58.869,15.681,58.344z"/>
	</g>
</g>
</svg>
