<?xml version="1.0" encoding="utf-8"?>
<!-- Generator: Adobe Illustrator 16.0.0, SVG Export Plug-In . SVG Version: 6.00 Build 0)  -->
<!DOCTYPE svg PUBLIC "-//W3C//DTD SVG 1.1//EN" "http://www.w3.org/Graphics/SVG/1.1/DTD/svg11.dtd">
<svg version="1.1" id="Layer_1" xmlns="http://www.w3.org/2000/svg" xmlns:xlink="http://www.w3.org/1999/xlink" x="0px" y="0px"
	 width="50px" height="39px" viewBox="0 0 50 39" enable-background="new 0 0 50 39" xml:space="preserve">
<g>
	<path fill="#FFFFFF" d="M18.265,38.905H0.328V26.077c0-5.195,0.455-9.291,1.371-12.289c0.916-3.002,2.607-5.695,5.077-8.076
		c2.468-2.383,5.617-4.258,9.447-5.617l3.512,7.404c-3.575,1.193-6.14,2.852-7.693,4.979c-1.555,2.131-2.373,4.961-2.457,8.492
		h8.682V38.905z M48.203,38.905H30.266V26.077c0-5.238,0.457-9.342,1.375-12.322c0.912-2.977,2.615-5.662,5.105-8.043
		c2.488-2.383,5.627-4.258,9.416-5.617l3.51,7.404c-3.574,1.193-6.139,2.852-7.691,4.979c-1.555,2.131-2.375,4.961-2.459,8.492
		h8.682V38.905z"/>
</g>
</svg>
