<?xml version="1.0" encoding="utf-8"?>
<!-- Generator: Adobe Illustrator 16.0.0, SVG Export Plug-In . SVG Version: 6.00 Build 0)  -->
<!DOCTYPE svg PUBLIC "-//W3C//DTD SVG 1.1//EN" "http://www.w3.org/Graphics/SVG/1.1/DTD/svg11.dtd">
<svg version="1.1" id="Layer_1" xmlns="http://www.w3.org/2000/svg" xmlns:xlink="http://www.w3.org/1999/xlink" x="0px" y="0px"
	 width="60px" height="60px" viewBox="0 0 60 60" enable-background="new 0 0 60 60" xml:space="preserve">
<g>
	<ellipse fill="#23A24D" cx="30" cy="51.711" rx="29.982" ry="8.271"/>
	<path fill="#808285" d="M43.105,5.522L43.105,5.522c-7.339-7.338-19.236-7.338-26.576,0l0,0
		c-6.612,6.612-7.356,19.064-1.747,26.546l15.035,21.711l15.033-21.711C50.464,24.586,49.72,12.134,43.105,5.522z M30,24.831
		c-3.425,0-6.202-2.776-6.202-6.204c0-3.425,2.777-6.202,6.202-6.202c3.428,0,6.204,2.776,6.204,6.202
		C36.204,22.055,33.428,24.831,30,24.831z"/>
</g>
</svg>
