<?xml version="1.0" encoding="utf-8"?>
<!-- Generator: Adobe Illustrator 16.0.0, SVG Export Plug-In . SVG Version: 6.00 Build 0)  -->
<!DOCTYPE svg PUBLIC "-//W3C//DTD SVG 1.1//EN" "http://www.w3.org/Graphics/SVG/1.1/DTD/svg11.dtd">
<svg version="1.1" id="Layer_1" xmlns="http://www.w3.org/2000/svg" xmlns:xlink="http://www.w3.org/1999/xlink" x="0px" y="0px"
	 width="24px" height="43px" viewBox="0 0 24 43" enable-background="new 0 0 24 43" xml:space="preserve">
<g>
	<path fill="#00A551" d="M14.508,24.917c0,0-0.421-6.727,9.443-8.894c-1.326,4.398-0.911,6.533-9.445,9.024"/>
	<path fill="#00A551" d="M9.492,24.917c0,0,0.421-6.727-9.443-8.894c1.327,4.398,0.912,6.533,9.447,9.024"/>
	<path fill="#00A551" d="M12.359,0.08c0,0-3.297,5.401-3.265,10.64c0.031,5.239,2.91,9.815,2.91,9.815
		c1.648-2.991,3.33-5.19,3.3-9.782C15.271,6.159,12.573-0.288,12.359,0.08z"/>
	<path fill="#717275" d="M12.063,8.434L12.063,8.434L13.17,40.84h7.57v2.096h-9.806L12.063,8.434z"/>
</g>
</svg>
