<?xml version="1.0" encoding="utf-8"?>
<!-- Generator: Adobe Illustrator 16.0.0, SVG Export Plug-In . SVG Version: 6.00 Build 0)  -->
<!DOCTYPE svg PUBLIC "-//W3C//DTD SVG 1.1//EN" "http://www.w3.org/Graphics/SVG/1.1/DTD/svg11.dtd">
<svg version="1.1" id="Layer_1" xmlns="http://www.w3.org/2000/svg" xmlns:xlink="http://www.w3.org/1999/xlink" x="0px" y="0px"
	 width="60px" height="60px" viewBox="0 0 60 60" enable-background="new 0 0 60 60" xml:space="preserve">
<g>
	<g>
		<polygon fill="#52C306" points="53.773,21.125 53.773,30.318 30,43.426 6.227,30.318 6.227,21.125 0.025,26.898 0.025,59.975 
			59.975,59.975 59.975,26.898 		"/>
	</g>
	<path fill="#88C057" d="M0.119,26.949l59.445,32.777c-0.035,0.133-0.031,0.115-0.064,0.248H0.16c-0.074,0-0.135-0.061-0.135-0.133
		V27.006C0.025,26.957,0.076,26.928,0.119,26.949z"/>
	<path fill="#00A651" d="M59.881,26.949L30,43.426l29.564,16.301c-0.035,0.131-0.031,0.117-0.064,0.248h0.342
		c0.074,0,0.133-0.061,0.133-0.133V27.006C59.975,26.957,59.924,26.928,59.881,26.949z"/>
	<path fill="#88C057" d="M0.119,26.949l59.445,32.777c-0.035,0.133-0.031,0.115-0.064,0.248H0.16c-0.074,0-0.135-0.061-0.135-0.133
		V27.006C0.025,26.957,0.076,26.928,0.119,26.949z"/>
	<g>
		<g>
			<polygon fill="#808285" points="30,43.426 53.773,30.318 53.773,0.025 6.227,0.025 6.227,30.318 			"/>
		</g>
	</g>
	<path fill="#BAB395" d="M34.135,10.361h-6.201c-0.572,0-1.033-0.463-1.033-1.035c0-0.57,0.461-1.033,1.033-1.033h6.201
		c0.572,0,1.033,0.463,1.033,1.033C35.168,9.898,34.707,10.361,34.135,10.361z"/>
	<path fill="#BAB395" d="M43.438,25.865h-7.236c-0.57,0-1.033-0.463-1.033-1.035c0-0.57,0.463-1.033,1.033-1.033h7.236
		c0.57,0,1.033,0.463,1.033,1.033C44.471,25.402,44.008,25.865,43.438,25.865z"/>
	<path fill="#BAB395" d="M22.766,17.596h-5.168c-0.572,0-1.035-0.461-1.035-1.033s0.463-1.033,1.035-1.033h5.168
		c0.57,0,1.033,0.461,1.033,1.033S23.336,17.596,22.766,17.596z"/>
	<path fill="#BAB395" d="M39.303,17.596h-8.27c-0.57,0-1.033-0.461-1.033-1.033s0.463-1.033,1.033-1.033h8.27
		c0.572,0,1.033,0.461,1.033,1.033S39.875,17.596,39.303,17.596z"/>
	<path fill="#BAB395" d="M26.9,17.596c-0.27,0-0.539-0.113-0.734-0.299c-0.188-0.197-0.301-0.467-0.301-0.734
		c0-0.27,0.113-0.539,0.301-0.734c0.383-0.383,1.086-0.383,1.467,0c0.188,0.195,0.301,0.465,0.301,0.734
		c0,0.268-0.113,0.537-0.301,0.734C27.438,17.482,27.168,17.596,26.9,17.596z"/>
	<path fill="#BAB395" d="M32.066,25.865H21.732c-0.572,0-1.035-0.463-1.035-1.035c0-0.57,0.463-1.033,1.035-1.033h10.334
		c0.572,0,1.035,0.463,1.035,1.033C33.102,25.402,32.639,25.865,32.066,25.865z"/>
	<path fill="#BAB395" d="M17.598,25.865c-0.27,0-0.539-0.113-0.734-0.301c-0.188-0.195-0.301-0.465-0.301-0.734
		c0-0.279,0.113-0.537,0.301-0.732c0.381-0.383,1.074-0.383,1.467,0c0.188,0.195,0.301,0.465,0.301,0.732
		c0,0.27-0.113,0.539-0.301,0.734C18.135,25.752,17.865,25.865,17.598,25.865z"/>
	<path fill="#BAB395" d="M43.438,17.596c-0.27,0-0.539-0.113-0.734-0.299c-0.188-0.197-0.299-0.467-0.299-0.734
		c0-0.27,0.111-0.539,0.299-0.734c0.393-0.383,1.086-0.383,1.467,0c0.188,0.195,0.301,0.465,0.301,0.734
		c0,0.268-0.113,0.537-0.301,0.734C43.975,17.482,43.705,17.596,43.438,17.596z"/>
	<path fill="#BAB395" d="M22.766,34.135h-5.168c-0.572,0-1.035-0.463-1.035-1.035s0.463-1.033,1.035-1.033h5.168
		c0.57,0,1.033,0.461,1.033,1.033S23.336,34.135,22.766,34.135z"/>
	<path fill="#BAB395" d="M39.303,34.135h-8.27c-0.57,0-1.033-0.463-1.033-1.035s0.463-1.033,1.033-1.033h8.27
		c0.572,0,1.033,0.461,1.033,1.033S39.875,34.135,39.303,34.135z"/>
	<path fill="#BAB395" d="M26.9,34.135c-0.281,0-0.539-0.113-0.734-0.301c-0.188-0.197-0.301-0.465-0.301-0.734
		c0-0.279,0.113-0.547,0.301-0.734c0.371-0.371,1.086-0.381,1.467,0c0.188,0.188,0.301,0.455,0.301,0.734
		c0,0.27-0.113,0.537-0.301,0.734C27.438,34.021,27.168,34.135,26.9,34.135z"/>
	<path fill="#BAB395" d="M43.438,34.135c-0.281,0-0.539-0.113-0.734-0.301c-0.188-0.197-0.299-0.465-0.299-0.734
		c0-0.279,0.111-0.547,0.299-0.734c0.371-0.371,1.086-0.381,1.467,0c0.188,0.188,0.301,0.455,0.301,0.734
		c0,0.27-0.113,0.537-0.301,0.734C43.975,34.021,43.705,34.135,43.438,34.135z"/>
</g>
</svg>
