<?xml version="1.0" encoding="utf-8"?>
<!-- Generator: Adobe Illustrator 16.0.0, SVG Export Plug-In . SVG Version: 6.00 Build 0)  -->
<!DOCTYPE svg PUBLIC "-//W3C//DTD SVG 1.1//EN" "http://www.w3.org/Graphics/SVG/1.1/DTD/svg11.dtd">
<svg version="1.1" id="Layer_1" xmlns="http://www.w3.org/2000/svg" xmlns:xlink="http://www.w3.org/1999/xlink" x="0px" y="0px"
	 width="60px" height="60px" viewBox="0 0 60 60" enable-background="new 0 0 60 60" xml:space="preserve">
<g>
	<path fill="#00A651" d="M39.489,0.129H20.51c0,0-5.422,0-5.422,5.433V54.44c0,5.431,5.422,5.431,5.422,5.431h18.979
		c0,0,5.423,0,5.423-5.431V5.562C44.912,0.129,39.489,0.129,39.489,0.129z M30,57.609c-1.498,0-2.711-1.216-2.711-2.712
		c0-1.495,1.214-2.711,2.711-2.711c1.498,0,2.711,1.216,2.711,2.711C32.711,56.394,31.498,57.609,30,57.609z M34.067,3.601
		c0,0.336-0.164,0.599-0.36,0.599h-7.414c-0.196,0-0.36-0.268-0.36-0.599V3.439c0-0.336,0.16-0.599,0.36-0.599h7.414
		c0.196,0,0.36,0.271,0.36,0.599V3.601z"/>
	<rect x="17.799" y="6.907" fill="#808285" width="24.402" height="43.383"/>
</g>
</svg>
