<?xml version="1.0" encoding="utf-8"?>
<!-- Generator: Adobe Illustrator 16.0.0, SVG Export Plug-In . SVG Version: 6.00 Build 0)  -->
<!DOCTYPE svg PUBLIC "-//W3C//DTD SVG 1.1//EN" "http://www.w3.org/Graphics/SVG/1.1/DTD/svg11.dtd">
<svg version="1.1" id="Layer_1" xmlns="http://www.w3.org/2000/svg" xmlns:xlink="http://www.w3.org/1999/xlink" x="0px" y="0px"
	 width="25px" height="25px" viewBox="0 0 25 25" enable-background="new 0 0 25 25" xml:space="preserve">
<g>
	<circle fill="#00A651" cx="12.5" cy="12.501" r="12.461"/>
	<g>
		<g>
			<path fill="#FFFFFF" d="M18.275,19.706l-2.043-4.32c-0.041-0.087-0.11-0.153-0.195-0.188l-1.018-0.452l1.76-2.95
				c0.005-0.008,0.007-0.016,0.013-0.022c0.353-0.685,0.526-1.422,0.526-2.194c0-1.301-0.508-2.52-1.435-3.433
				s-2.151-1.404-3.453-1.388c-1.263,0.018-2.455,0.525-3.352,1.43c-0.895,0.903-1.392,2.097-1.4,3.36
				c-0.004,0.771,0.176,1.543,0.527,2.224c0.004,0.006,0.008,0.014,0.01,0.022l1.764,2.95l-1.022,0.454
				c-0.086,0.036-0.151,0.104-0.192,0.188l-2.041,4.32c-0.069,0.146-0.041,0.317,0.071,0.43c0.111,0.113,0.283,0.147,0.428,0.083
				l2.558-1.14l2.562,1.14c0.097,0.045,0.212,0.045,0.313,0l2.556-1.14l2.558,1.14c0.056,0.022,0.106,0.032,0.16,0.032
				c0.1,0,0.197-0.038,0.271-0.115C18.313,20.023,18.342,19.852,18.275,19.706z M8.882,11.412c-0.293-0.578-0.442-1.204-0.44-1.861
				c0.016-2.192,1.809-3.999,4-4.029c1.095-0.016,2.128,0.398,2.906,1.166c0.779,0.77,1.205,1.794,1.205,2.889
				c0,0.646-0.146,1.263-0.438,1.834l-3.287,5.512c-0.099,0.17-0.263,0.187-0.327,0.187c-0.066,0-0.23-0.017-0.329-0.187
				L8.882,11.412z M15.372,18.313c-0.104-0.045-0.214-0.045-0.313,0l-2.558,1.14l-2.562-1.14c-0.097-0.045-0.21-0.045-0.309,0
				L7.856,19.1L9.4,15.839l0.974-0.433l1.142,1.91c0.21,0.351,0.578,0.559,0.986,0.559c0.406,0,0.775-0.208,0.984-0.559l1.139-1.91
				l0.979,0.435l1.541,3.259L15.372,18.313z"/>
			<path fill="#FFFFFF" d="M13.85,10.244c0-0.744-0.606-1.348-1.349-1.348c-0.744,0-1.348,0.604-1.348,1.348
				c0,0.742,0.604,1.348,1.348,1.348C13.243,11.592,13.85,10.986,13.85,10.244z M11.743,10.244c0-0.418,0.337-0.758,0.758-0.758
				c0.416,0,0.756,0.34,0.756,0.758S12.917,11,12.501,11C12.081,11,11.743,10.663,11.743,10.244z"/>
		</g>
	</g>
</g>
</svg>
