<?xml version="1.0" encoding="utf-8"?>
<!-- Generator: Adobe Illustrator 16.0.0, SVG Export Plug-In . SVG Version: 6.00 Build 0)  -->
<!DOCTYPE svg PUBLIC "-//W3C//DTD SVG 1.1//EN" "http://www.w3.org/Graphics/SVG/1.1/DTD/svg11.dtd">
<svg version="1.1" id="Layer_1" xmlns="http://www.w3.org/2000/svg" xmlns:xlink="http://www.w3.org/1999/xlink" x="0px" y="0px"
	 width="24px" height="43px" viewBox="0 0 24 43" enable-background="new 0 0 24 43" xml:space="preserve">
<g id="XMLID_1_">
	<circle id="XMLID_37_" fill="#00A651" cx="12" cy="21.5" r="12"/>
	<g id="XMLID_2_">
		<g id="XMLID_164_">
			<g id="XMLID_170_">
				<g id="XMLID_171_">
					<path id="XMLID_172_" fill="#FFFFFF" d="M19.2,20.3l-1.9-1.2v-4.2c0-0.1-0.1-0.2-0.2-0.2H6.9c-0.1,0-0.2,0.1-0.2,0.2V19
						l-1.9,1.2c-0.1,0-0.1,0.1-0.1,0.2v7.5C4.7,28,4.8,28.1,4.9,28.1h14.2c0.101,0,0.2-0.1,0.2-0.199v-7.4
						C19.3,20.5,19.3,20.4,19.2,20.3z M17.3,19.7l0.9,0.6h-0.9V19.7z M17.3,20.8h0.8l-0.8,0.4V20.8z M7.1,15.2h9.7v6.3l-4.1,2.2
						L12,23.3c-0.1-0.1-0.2-0.1-0.3,0L11,23.7l-4.1-2.2v-6.3H7.1z M6.7,19.7v0.6h-1L6.7,19.7z M6.7,20.8v0.4l-0.8-0.4H6.7z
						 M5.2,20.9l5.6,3L5.2,27.6V20.9z M5.7,27.8l6.3-4.2l6.3,4.2H5.7z M18.8,27.6L13.2,23.9l5.6-3V27.6z"/>
				</g>
			</g>
			<g id="XMLID_165_">
				<g id="XMLID_166_">
					<path id="XMLID_167_" fill="#FFFFFF" d="M13.9,21.1c0.1,0,0.199-0.1,0.199-0.2S14,20.7,13.9,20.7H12c-0.9,0-1.7-0.8-1.7-1.7
						v-0.2c0-0.9,0.8-1.7,1.7-1.7c0.9,0,1.7,0.8,1.7,1.7V19c0,0.2-0.2,0.4-0.4,0.4S12.9,19.2,12.9,19v-0.3c0-0.6-0.5-1-1-1
						c-0.6,0-1,0.5-1,1c0,0.6,0.5,1,1,1c0.3,0,0.5-0.1,0.7-0.3c0.2,0.2,0.4,0.4,0.7,0.4c0.5,0,0.9-0.4,0.9-0.9v-0.1
						c0-1.2-1-2.2-2.2-2.2s-2.2,1-2.2,2.2v0.1c0,1.2,1,2.2,2.2,2.2H13.9z M11.9,19.2c-0.3,0-0.6-0.3-0.6-0.6c0-0.3,0.3-0.6,0.6-0.6
						c0.3,0,0.6,0.3,0.6,0.6C12.5,19,12.2,19.2,11.9,19.2z"/>
				</g>
			</g>
		</g>
	</g>
</g>
</svg>
