<?xml version="1.0" encoding="utf-8"?>
<!-- Generator: Adobe Illustrator 16.0.0, SVG Export Plug-In . SVG Version: 6.00 Build 0)  -->
<!DOCTYPE svg PUBLIC "-//W3C//DTD SVG 1.1//EN" "http://www.w3.org/Graphics/SVG/1.1/DTD/svg11.dtd">
<svg version="1.1" id="Layer_1" xmlns="http://www.w3.org/2000/svg" xmlns:xlink="http://www.w3.org/1999/xlink" x="0px" y="0px"
	 width="24px" height="43px" viewBox="0 0 24 43" enable-background="new 0 0 24 43" xml:space="preserve">
<g id="XMLID_1_">
	<circle id="XMLID_37_" fill="#00A651" cx="12" cy="21.5" r="12"/>
	<g id="XMLID_4_">
		<g id="XMLID_109_">
			<g id="XMLID_114_">
				<g id="XMLID_115_">
					<path id="XMLID_116_" fill="#FFFFFF" d="M16,23.3C15.7,23,15.4,22.9,15,22.9S14.3,23.1,14,23.3l-0.9,0.9
						C13,24.2,12.9,24.1,12.9,24.1C12.8,24,12.7,24,12.6,23.9C11.7,23.4,11,22.6,10.2,21.7c-0.4-0.5-0.6-0.8-0.8-1.2
						c0.2-0.2,0.5-0.4,0.7-0.7c0.1-0.1,0.2-0.2,0.2-0.2c0.6-0.6,0.6-1.4,0-2l-0.8-0.7c0-0.1-0.1-0.2-0.2-0.3
						c-0.2-0.2-0.4-0.4-0.6-0.5c-0.3-0.3-0.6-0.4-1-0.4c-0.4,0-0.7,0.1-1,0.4l0,0l-1,1c-0.3,0.3-0.5,0.8-0.5,1.3
						c-0.1,0.8,0.2,1.6,0.4,2.1c0.5,1.3,1.2,2.4,2.2,3.7c1.3,1.5,2.8,2.7,4.5,3.6c0.7,0.3,1.601,0.7,2.5,0.8c0.101,0,0.101,0,0.2,0
						c0.7,0,1.2-0.199,1.7-0.699l0,0c0.1-0.2,0.3-0.301,0.5-0.5c0.1-0.101,0.3-0.2,0.399-0.4c0.301-0.3,0.4-0.6,0.4-1
						s-0.2-0.7-0.4-1L16,23.3z M17,26.4c-0.1,0.1-0.2,0.199-0.4,0.399C16.4,27,16.2,27.2,16,27.4c-0.3,0.3-0.6,0.5-1.1,0.5H14.8
						c-0.899-0.101-1.7-0.4-2.3-0.7c-1.6-0.8-3.1-1.9-4.3-3.3c-1-1.2-1.6-2.3-2.1-3.5C6,19.6,5.9,19,5.9,18.5c0-0.3,0.2-0.6,0.4-0.9
						l1-1c0.2-0.1,0.3-0.2,0.5-0.2c0.2,0,0.3,0.1,0.4,0.2l0,0c0.2,0.2,0.3,0.3,0.5,0.5c0.1,0.1,0.2,0.2,0.3,0.3l0.8,0.8
						c0.3,0.3,0.3,0.6,0,0.9c-0.1,0.1-0.2,0.2-0.3,0.3c-0.2,0.2-0.5,0.5-0.7,0.7l0,0c-0.3,0.2-0.2,0.5-0.2,0.7l0,0
						c0.2,0.5,0.5,1,0.9,1.5l0,0c0.8,1,1.6,1.8,2.6,2.3c0.1,0.101,0.2,0.101,0.4,0.2c0.1,0.101,0.2,0.101,0.3,0.2l0,0
						c0.101,0.1,0.2,0.1,0.3,0.1c0.2,0,0.4-0.199,0.4-0.199l1-1c0.1-0.101,0.3-0.2,0.4-0.2c0.199,0,0.3,0.1,0.399,0.2l0,0l1.7,1.6
						C17.3,25.8,17.3,26.1,17,26.4z"/>
				</g>
			</g>
			<g id="XMLID_112_">
				<path id="XMLID_113_" fill="#FFFFFF" d="M12.6,18.1c0.801,0.1,1.4,0.5,2,1c0.5,0.6,0.9,1.2,1,2c0,0.2,0.2,0.3,0.4,0.3
					c0,0,0,0,0.1,0c0.2,0,0.4-0.2,0.301-0.5C16.2,20,15.8,19.1,15.1,18.5c-0.699-0.7-1.5-1.1-2.399-1.3c-0.2,0-0.4,0.1-0.5,0.3
					C12.2,17.9,12.3,18.1,12.6,18.1z"/>
			</g>
			<g id="XMLID_110_">
				<path id="XMLID_111_" fill="#FFFFFF" d="M18.8,20.9c-0.3-1.5-1-2.9-2.1-4c-1.101-1.1-2.5-1.8-4-2.1c-0.2,0-0.4,0.1-0.4,0.3
					c0,0.2,0.1,0.4,0.3,0.5c1.4,0.3,2.7,0.9,3.601,1.9c1,1,1.6,2.2,1.8,3.6c0,0.2,0.2,0.3,0.4,0.3c0,0,0,0,0.1,0
					C18.7,21.3,18.9,21.1,18.8,20.9z"/>
			</g>
		</g>
	</g>
</g>
</svg>
