<?xml version="1.0" encoding="utf-8"?>
<!-- Generator: Adobe Illustrator 16.0.0, SVG Export Plug-In . SVG Version: 6.00 Build 0)  -->
<svg version="1.2" baseProfile="tiny" id="Layer_1" xmlns="http://www.w3.org/2000/svg" xmlns:xlink="http://www.w3.org/1999/xlink"
	 x="0px" y="0px" width="24px" height="43px" viewBox="0 0 24 43" xml:space="preserve">
<path fill="#FFFFFF" d="M14.524,24.938c0,0-0.421-6.743,9.476-8.916c-1.331,4.41-0.914,6.55-9.478,9.046"/>
<path fill="#FFFFFF" d="M9.493,24.938c0,0,0.422-6.743-9.475-8.916c1.331,4.41,0.915,6.55,9.478,9.046"/>
<path fill="#FFFFFF" d="M12.369,0.039c0,0-3.308,5.414-3.276,10.667c0.032,5.251,2.92,9.838,2.92,9.838
	c1.654-2.998,3.341-5.203,3.309-9.806C15.291,6.133,12.583-0.329,12.369,0.039"/>
<polygon fill="#FFFFFF" points="12.073,8.413 12.073,8.413 13.184,40.899 20.778,40.899 20.778,43 10.939,43 "/>
</svg>
