<?xml version="1.0" encoding="utf-8"?>
<!-- Generator: Adobe Illustrator 16.0.0, SVG Export Plug-In . SVG Version: 6.00 Build 0)  -->
<svg version="1.2" baseProfile="tiny" id="Layer_1" xmlns="http://www.w3.org/2000/svg" xmlns:xlink="http://www.w3.org/1999/xlink"
	 x="0px" y="0px" width="18px" height="18px" viewBox="0 0 18 18" xml:space="preserve">
<path fill="#FFFFFF" d="M11.354,9.352H9.749v5.875h-2.43V9.352H6.163V7.286h1.156V5.95c0-0.956,0.453-2.452,2.453-2.452l1.799,0.007
	V5.51h-1.307c-0.213,0-0.516,0.107-0.516,0.563v1.216h1.816L11.354,9.352z"/>
<path fill="#D32629" d="M8.999,0.002c4.969,0,8.998,4.028,8.998,8.998c0,4.97-4.029,8.998-8.998,8.998
	c-4.967,0-8.996-4.027-8.996-8.998C0.003,4.031,4.032,0.002,8.999,0.002"/>
<path fill="#FFFFFF" d="M12.218,11.086h-0.58l0.004-0.336c0-0.15,0.121-0.271,0.271-0.271h0.036c0.151,0,0.276,0.121,0.276,0.271
	L12.218,11.086z M10.042,10.365c-0.146,0-0.268,0.098-0.268,0.219v1.639c0,0.121,0.121,0.221,0.268,0.221
	c0.148,0,0.268-0.1,0.268-0.221v-1.639C10.31,10.463,10.19,10.365,10.042,10.365 M13.574,9.449v3.118
	c0,0.748-0.647,1.359-1.438,1.359H6.208c-0.793,0-1.441-0.611-1.441-1.359V9.449c0-0.749,0.648-1.361,1.441-1.361h5.928
	C12.927,8.087,13.574,8.7,13.574,9.449 M6.603,12.904V9.62h0.734V9.133L5.38,9.13v0.479l0.61,0.002v3.293H6.603L6.603,12.904z
	 M8.806,10.109H8.194v1.754c0,0.254,0.014,0.381-0.002,0.424c-0.051,0.137-0.273,0.281-0.361,0.016
	c-0.016-0.047-0.002-0.188-0.002-0.428l-0.002-1.766H7.218l0.002,1.738c0,0.266-0.007,0.465,0.002,0.555
	c0.016,0.16,0.01,0.346,0.158,0.451c0.275,0.199,0.803-0.029,0.936-0.314l-0.002,0.363h0.492V10.109z M10.765,12.117l-0.002-1.459
	c0-0.557-0.416-0.889-0.981-0.441l0.002-1.083l-0.61,0.001l-0.004,3.745l0.504-0.008l0.045-0.232
	C10.362,13.229,10.767,12.824,10.765,12.117 M12.683,11.924l-0.461,0.002v0.063v0.256c0,0.137-0.113,0.25-0.25,0.25H11.88
	c-0.137,0-0.25-0.113-0.25-0.25v-0.027v-0.283V11.57h1.051v-0.395c0-0.291-0.006-0.58-0.031-0.744
	c-0.075-0.524-0.809-0.606-1.18-0.34c-0.117,0.084-0.205,0.197-0.258,0.348c-0.054,0.15-0.078,0.355-0.078,0.617v0.869
	C11.134,13.373,12.892,13.168,12.683,11.924 M10.327,7.199c0.031,0.076,0.079,0.139,0.146,0.186c0.064,0.046,0.15,0.069,0.25,0.069
	c0.088,0,0.168-0.023,0.234-0.073c0.068-0.049,0.127-0.122,0.174-0.22L11.12,7.402h0.682V4.499h-0.537v2.261
	c0,0.121-0.102,0.221-0.225,0.221s-0.225-0.1-0.225-0.221V4.499h-0.559v1.958c0,0.25,0.004,0.416,0.012,0.501
	C10.276,7.041,10.294,7.122,10.327,7.199 M8.257,5.56c0-0.279,0.024-0.497,0.07-0.654c0.045-0.156,0.129-0.282,0.25-0.376
	C8.698,4.434,8.853,4.386,9.04,4.386c0.158,0,0.293,0.031,0.406,0.091c0.113,0.061,0.203,0.141,0.262,0.24
	c0.063,0.097,0.104,0.198,0.129,0.301C9.858,5.123,9.87,5.281,9.87,5.495v0.734c0,0.269-0.012,0.467-0.031,0.593
	C9.817,6.948,9.772,7.065,9.704,7.174S9.548,7.364,9.44,7.417C9.333,7.468,9.21,7.493,9.069,7.493c-0.154,0-0.288-0.021-0.395-0.066
	c-0.107-0.044-0.191-0.112-0.25-0.202C8.362,7.136,8.321,7.027,8.296,6.9C8.269,6.773,8.257,6.583,8.257,6.328V5.56z M8.792,6.712
	c0,0.164,0.123,0.299,0.271,0.299c0.15,0,0.271-0.135,0.271-0.299V5.167c0-0.164-0.121-0.298-0.271-0.298
	c-0.148,0-0.271,0.134-0.271,0.298V6.712z M6.901,7.493h0.646V5.267l0.76-1.908H7.604L7.199,4.775L6.788,3.354H6.093l0.809,1.913
	V7.493z"/>
</svg>
